PathFileType	4	(X/Y/Z)	C:/Users/opensim2020/Desktop/walking_exp_matlab/subject01_walking15_straight_02.trc	
DataRate	CameraRate	NumFrames	NumMarkers	Units	OrigDataRate	OrigDataStartFrame	OrigNumFrames	
100.00	100.00	8	43	mm	100.00	1212	135	
Frame#	Time	LFHD			RFHD			LBHD			RBHD			C7			T10			CLAV			STRN			RBAK			LSHO			LUPA			LELB			LFRM			LWRA			LWRB			LFIN			RSHO			RUPA			RELB			RFRM			RWRA			RWRB			RFIN			LASI			RASI			LPSI			RPSI			LTHI			LKNE			LTIB			LANK			LHEE			LTOE			RTHI			RKNE			RTIB			RANK			RHEE			RTOE			*39			*40			*41			*42			
		X1	Y1	Z1	X2	Y2	Z2	X3	Y3	Z3	X4	Y4	Z4	X5	Y5	Z5	X6	Y6	Z6	X7	Y7	Z7	X8	Y8	Z8	X9	Y9	Z9	X10	Y10	Z10	X11	Y11	Z11	X12	Y12	Z12	X13	Y13	Z13	X14	Y14	Z14	X15	Y15	Z15	X16	Y16	Z16	X17	Y17	Z17	X18	Y18	Z18	X19	Y19	Z19	X20	Y20	Z20	X21	Y21	Z21	X22	Y22	Z22	X23	Y23	Z23	X24	Y24	Z24	X25	Y25	Z25	X26	Y26	Z26	X27	Y27	Z27	X28	Y28	Z28	X29	Y29	Z29	X30	Y30	Z30	X31	Y31	Z31	X32	Y32	Z32	X33	Y33	Z33	X34	Y34	Z34	X35	Y35	Z35	X36	Y36	Z36	X37	Y37	Z37	X38	Y38	Z38	X39	Y39	Z39	X40	Y40	Z40	X41	Y41	Z41	X42	Y42	Z42	X43	Y43	Z43	

68	0.670	-1024.38074	80.05403	1662.43262	-1131.30542	41.74099	1673.99097	-1061.46436	185.00452	1607.25354	-1175.28015	147.61974	1618.27820	-1100.70520	198.49792	1424.53113	-1115.13696	245.50414	1133.24207	-1091.49988	53.94574	1355.16541	-1088.65454	17.60818	1197.59717	-1188.86755	253.21559	1239.03760	-935.07300	123.97727	1386.79077	-858.31464	191.52965	1209.54749	-869.09088	235.32053	1066.42456	-842.40814	227.78409	953.40527	-848.03540	175.71416	822.13470	-838.68011	234.01956	831.13654	-818.95483	210.62631	753.17621	-1244.14160	104.22270	1397.43396	-1359.42615	164.50761	1209.98767	-1377.59595	157.28696	1082.67480	-1396.82666	78.30437	984.33759	-1359.87073	-42.46659	919.64368	-1402.09119	-9.97861	898.94171	-1396.59814	-81.43346	851.48486	-998.20966	72.22139	931.37061	-1216.05566	71.64282	922.28558	-1048.96582	257.17181	936.87323	-1191.95471	254.73396	946.52783	-922.38916	21.24223	612.96094	-940.37372	-17.57972	487.07471	-922.88782	-14.41709	302.12296	-964.53156	-59.94860	79.83428	-1022.60144	-30.91317	38.04763	-948.76807	-205.90839	82.77543	-1268.39539	200.42915	603.30524	-1243.43274	236.36752	446.18060	-1251.22266	330.53601	297.26401	-1208.87891	410.58414	105.23270	-1163.52612	470.87210	81.81604	-1198.42078	284.64163	35.71032	-1111.66016	61.98086	1705.01123	-3101.99170	1973.02551	1023.86792	-3140.79248	2012.46655	1022.14081			 
69	0.680	-1022.11694	66.55193	1660.98853	-1129.10754	28.51795	1672.63171	-1059.24365	171.67558	1605.77136	-1173.00098	134.44040	1616.90222	-1098.50134	185.10951	1422.88074	-1113.35913	231.57054	1131.55579	-1089.61731	40.49963	1353.77014	-1087.15527	3.82437	1196.29602	-1187.04688	239.66791	1237.51904	-932.96088	110.32036	1384.95251	-856.69244	178.45262	1207.75806	-868.06079	223.48000	1065.21802	-841.61993	217.95271	952.20148	-847.19019	168.48985	819.84180	-838.26379	226.74652	829.98340	-818.64587	205.14911	751.36401	-1241.94897	91.08357	1396.17627	-1357.89087	150.49838	1208.97266	-1376.04858	143.08058	1081.57385	-1394.86707	62.41476	984.50751	-1357.16394	-59.41642	922.34912	-1399.07678	-27.46871	900.62299	-1393.55566	-100.00085	854.88324	-997.55225	57.46737	929.84113	-1215.28113	58.19815	920.87469	-1047.07300	242.64063	935.57690	-1190.05481	240.97530	945.82251	-919.24078	9.75772	609.74713	-939.66608	-31.28504	485.66629	-921.67114	-34.01836	301.09607	-963.16449	-87.10792	80.50853	-1020.96088	-58.53738	37.32827	-948.73517	-233.17416	87.75244	-1268.56018	189.54506	602.84717	-1243.55737	226.85751	445.68530	-1251.50403	324.22632	298.56702	-1209.64001	408.31516	108.11411	-1164.64050	469.15802	86.36207	-1198.65979	284.48914	35.91060	-1109.39148	48.68539	1703.74109	-3101.87012	1973.20178	1023.49573	-3140.85400	2012.47717	1022.10608			 
70	0.690	-1019.84619	53.10394	1659.51111	-1126.96130	15.26452	1671.29211	-1056.68335	158.17482	1604.29480	-1170.56177	121.23244	1615.53357	-1096.13782	171.56534	1421.22119	-1111.43579	217.50865	1129.89307	-1087.56079	26.93055	1352.45227	-1085.47131	-10.15905	1195.04419	-1184.96130	226.09282	1235.99866	-930.69879	96.51784	1383.07532	-854.86578	165.19522	1205.89697	-866.83502	210.96484	1063.89783	-840.65387	207.41064	950.89136	-846.35681	160.47485	817.62030	-837.43170	218.46468	828.82874	-818.32312	198.54128	749.62640	-1239.71033	77.92652	1394.92627	-1356.39001	136.55336	1207.98560	-1374.63574	128.97229	1080.50940	-1392.79541	46.83349	984.52997	-1354.41541	-75.88019	924.72662	-1396.49609	-44.38482	902.21167	-1390.48792	-117.86779	858.03302	-997.01239	42.57897	928.29010	-1214.52441	44.44514	919.48291	-1044.97180	227.92796	934.23956	-1188.01917	227.09926	944.94501	-916.57031	-2.26552	607.31866	-939.07214	-44.99855	484.50183	-921.09540	-51.95947	299.87393	-962.91772	-110.97347	80.46926	-1020.60870	-83.18877	36.46027	-948.88220	-256.56229	91.07687	-1268.58545	177.56624	602.17871	-1243.45691	216.38843	445.02963	-1252.19678	317.26212	300.22876	-1210.43530	405.80389	111.31712	-1165.37000	467.27753	91.43381	-1198.92529	284.20657	35.95350	-1107.10364	35.50278	1702.27612	-3102.04199	1972.99890	1023.91211	-3140.73389	2012.56494	1022.20221			 
71	0.700	-1017.51776	39.56254	1658.15430	-1124.60852	2.02283	1669.98877	-1053.48584	144.93279	1602.78369	-1168.02173	108.06319	1614.16113	-1094.03882	158.07936	1419.77441	-1109.49377	203.44626	1128.26294	-1085.44995	13.25764	1351.00842	-1083.78979	-24.11239	1193.80396	-1182.64587	212.51270	1234.45447	-928.31250	82.58888	1381.22876	-852.85156	151.61731	1203.96045	-865.31982	198.23657	1062.43567	-839.45447	196.23723	949.53821	-845.52942	151.54930	815.51154	-836.23224	209.43292	827.74487	-817.85242	190.85458	747.99261	-1237.47083	64.67175	1393.64978	-1354.54651	122.79830	1206.89502	-1372.80408	115.11462	1079.36267	-1390.40430	31.55889	984.45367	-1351.72754	-91.85426	926.75500	-1393.57910	-60.92331	903.55048	-1387.50830	-135.09476	860.70892	-996.47461	27.49478	926.70703	-1213.84021	30.66985	918.25867	-1042.84692	213.11800	933.00171	-1185.88452	213.22142	943.78687	-915.14008	-17.34666	606.10608	-938.51605	-58.98042	483.45984	-920.81366	-68.57827	298.32324	-963.09692	-130.66597	79.89544	-1020.71576	-103.98795	35.42518	-949.39807	-276.47305	92.95685	-1268.07031	164.91478	600.97546	-1243.45166	204.86667	444.07837	-1252.29321	309.65640	301.72186	-1211.28186	402.90271	115.17178	-1166.28088	464.57468	97.01666	-1199.16504	283.78006	35.92551	-1104.81396	22.13643	1701.04041	-3101.85596	1973.13855	1023.70074	-3140.79248	2012.56323	1022.15717			 
72	0.710	-1015.03589	26.05795	1656.81580	-1122.21570	-11.23094	1668.72656	-1050.82336	131.45641	1601.47778	-1165.30530	94.86486	1612.79272	-1090.87988	144.33144	1418.10999	-1107.52747	189.22629	1126.74622	-1083.23914	-0.49153	1349.67212	-1081.96692	-38.02997	1192.51917	-1180.17285	198.87621	1232.99182	-925.84589	68.48568	1379.40320	-850.71326	137.81091	1202.01819	-863.69177	184.87703	1061.05457	-838.12482	184.42645	948.13074	-844.58026	141.76428	813.55243	-835.56268	199.55563	826.48090	-817.19897	181.99532	746.36517	-1235.19849	51.54612	1392.55566	-1352.52039	109.36173	1205.83057	-1370.73389	101.38747	1078.23279	-1388.17908	16.80254	984.29138	-1349.07117	-107.26911	928.41302	-1390.93201	-76.76764	904.69812	-1384.56409	-151.60674	862.99939	-995.98059	12.14762	925.15100	-1213.16357	16.66541	917.03802	-1040.60498	198.12941	931.71271	-1183.65356	199.10954	942.34509	-915.61804	-33.85055	605.88568	-938.09149	-73.38484	482.55157	-920.74127	-83.88233	296.52701	-963.92273	-146.96027	78.75742	-1021.64563	-120.72071	34.13932	-950.41705	-293.01276	92.49834	-1267.21448	151.34328	599.98169	-1243.39490	192.23616	442.93378	-1252.63696	301.00943	303.32822	-1211.97070	399.32001	119.27314	-1166.85571	461.58740	103.13811	-1199.39197	283.18488	35.95676	-1102.31104	8.90247	1699.74622	-3101.92310	1973.11792	1023.51318	-3140.83472	2012.47937	1022.10846			 
73	0.720	-1012.43762	12.50470	1655.60181	-1119.78003	-24.47959	1667.50208	-1047.88464	118.02802	1600.13062	-1162.58252	81.70954	1611.46472	-1088.08545	130.64494	1416.63940	-1105.42468	174.88884	1125.19226	-1080.92419	-14.34659	1348.35535	-1080.03979	-52.26771	1191.36853	-1177.50439	185.18976	1231.50781	-923.18719	54.29433	1377.55688	-848.39984	123.60263	1200.08508	-861.88306	171.11366	1059.47729	-836.60406	172.02718	946.65973	-843.82056	131.38730	811.56305	-834.41058	188.67476	825.16626	-816.40900	172.20412	744.65802	-1232.76282	38.31033	1391.35156	-1350.05530	96.19098	1204.72021	-1368.39722	87.98037	1077.11243	-1385.73120	2.35144	984.16321	-1346.44397	-122.09095	929.75269	-1388.40015	-91.98747	905.58179	-1381.72546	-167.38579	864.85931	-995.35645	-3.34430	923.65155	-1212.38684	2.36610	915.79395	-1038.41541	183.02249	930.33691	-1181.28699	184.69904	940.57361	-917.13550	-51.22720	605.92981	-937.99780	-88.08131	481.54276	-921.18500	-97.88737	294.40912	-964.95496	-160.57027	76.84793	-1022.57367	-133.58263	32.82015	-951.97760	-306.41669	90.06095	-1266.70569	136.75101	598.58502	-1243.28308	178.40471	441.58762	-1252.50598	291.76810	305.24670	-1212.57141	395.23837	123.62498	-1167.49609	457.67523	110.01889	-1199.60242	282.54926	35.89058	-1099.75525	-4.35208	1698.37036	-3101.98560	1973.27917	1023.55243	-3140.69727	2012.54590	1022.08179			 
74	0.730	-1009.85718	-1.07169	1654.31201	-1117.34021	-37.66925	1666.24353	-1045.09705	104.23587	1598.51416	-1159.67188	68.55749	1610.11646	-1085.11584	116.84879	1415.12305	-1103.29492	160.50552	1123.67322	-1078.57324	-28.23674	1347.08838	-1078.11804	-66.45595	1190.21484	-1174.65881	171.34418	1230.04492	-920.53644	39.97728	1375.73621	-845.84259	109.37043	1198.16870	-859.90582	157.44640	1057.92310	-835.02216	158.90469	945.10516	-842.86725	119.74697	809.64496	-833.13885	176.90198	823.73999	-815.55310	161.31609	742.95581	-1230.25757	25.00458	1390.37634	-1347.45874	83.24970	1203.63123	-1366.01941	74.84668	1076.18542	-1383.28101	-11.47303	983.93494	-1343.93787	-136.31741	930.72400	-1385.84424	-106.53267	906.23389	-1379.01855	-182.37331	866.28223	-994.51331	-18.94852	922.38910	-1211.51782	-12.15615	914.66949	-1036.29395	167.77039	928.81531	-1178.98218	170.13606	938.63385	-919.05511	-69.30361	606.44116	-938.08856	-103.09389	480.15076	-922.02856	-110.99419	292.04321	-966.08508	-171.02997	74.35713	-1022.96466	-142.19350	32.58854	-954.05731	-317.25308	85.73840	-1265.90100	121.50065	597.09882	-1243.45435	163.33424	439.97961	-1252.47021	281.14102	306.96240	-1213.30627	390.57532	128.64250	-1167.87341	452.95029	117.40011	-1199.92065	282.01489	36.03234	-1097.21582	-17.63622	1697.26794	-3102.02148	1973.08093	1023.41614	-3140.76172	2012.50256	1022.03876			 
75	0.740	-1007.21118	-14.66519	1652.97327	-1114.79504	-50.82331	1664.97205	-1042.00989	90.91539	1597.27148	-1156.74109	55.49335	1608.68066	-1082.51917	103.19447	1413.65710	-1100.96619	145.87859	1122.02942	-1076.05554	-42.23243	1345.81848	-1076.05408	-80.73328	1189.07971	-1171.75098	157.48271	1228.48157	-917.76929	25.50466	1373.94958	-843.47668	94.50787	1196.15967	-857.84052	143.08731	1056.15137	-833.37091	145.24911	943.39893	-841.89178	107.39850	807.64124	-831.54187	164.24614	822.26929	-814.58728	149.23531	741.12360	-1227.34021	11.60885	1389.03589	-1344.54590	70.70684	1202.59338	-1363.47424	61.99573	1075.32434	-1380.79187	-24.83710	983.64258	-1341.46851	-150.00934	931.23529	-1383.43945	-120.40646	906.58734	-1376.39172	-196.69077	867.09229	-993.42816	-34.85807	921.31995	-1210.46521	-26.99206	913.62756	-1034.24805	152.45264	927.12189	-1176.73621	155.33078	936.55060	-921.27545	-86.83501	606.51343	-938.33710	-118.38226	478.42526	-922.89514	-122.81007	289.32480	-967.24512	-178.57802	71.22263	-1023.40588	-146.90436	32.50188	-957.21790	-325.64951	78.08025	-1265.56482	105.43849	595.82019	-1243.49084	147.10382	438.01862	-1252.66187	269.57623	308.81955	-1213.67651	384.83533	134.01366	-1167.98889	447.26950	125.40907	-1200.14575	281.32419	35.99418	-1094.57715	-30.79995	1695.84814	-3101.90674	1973.02673	1023.90118	-3140.73120	2012.47815	1022.12518			 
